<svg width="116" height="62" viewBox="0 0 116 62" fill="#0000FF" xmlns="http://www.w3.org/2000/svg">
<path d="M33.5475 44.3286C27.4864 48.3857 19.1709 53.5972 11.7814 49.6957C8.67452 48.0547 6.97261 44.197 6.58391 40.8401C6.33755 38.7083 6.56217 36.4516 6.96305 34.3505C7.15211 33.3555 7.39476 32.3558 7.71392 31.3952C8.05853 30.3579 8.91769 29.6609 9.71369 28.9335C12.7845 26.1294 16.4288 24.1459 19.943 21.9733C23.3445 19.8718 26.7966 17.8253 30.6812 16.7542C36.9438 15.0275 44.0996 16.5054 47.709 22.3099C48.9245 24.2635 49.5864 26.5034 50.1006 28.731C50.2439 29.3487 50.3726 29.9692 50.4925 30.5924C50.5661 30.9769 50.7581 31.2983 50.4363 31.5646C50.1611 31.7927 49.8859 32.0204 49.6103 32.2473C48.576 33.0987 47.5358 33.9437 46.4892 34.7799C42.2999 38.128 38.0047 41.3457 33.5475 44.3286C39.5034 40.342 27.5015 48.3761 33.5475 44.3286ZM89.6255 6.32032C90.4471 6.02562 91.3296 5.96102 92.1878 6.11455C92.6076 6.18952 93.0182 6.31234 93.4137 6.47065C93.8709 6.65249 94.015 6.98387 94.4201 7.20838C93.837 7.68691 93.0122 7.58044 92.3201 7.4624C91.6781 7.35274 91.046 7.17887 90.4244 6.98587C90.3292 6.95636 89.0759 6.54642 89.6255 6.32032ZM114.585 41.4953C109.796 46.3679 103.543 49.5026 96.7746 50.4055C90.1464 51.2896 83.3553 50.1267 77.1752 47.6631C70.7876 45.1165 64.3948 41.3346 60.9968 35.1361C60.1764 33.6399 59.5261 32.0543 59.0056 30.4297C58.8749 30.0238 58.5687 29.5357 58.9084 29.2366C59.327 28.8673 59.7451 28.4985 60.1637 28.1296C61.0634 27.3372 61.9638 26.5465 62.8655 25.7565C64.5983 24.2392 66.3351 22.7262 68.0806 21.2245C69.5494 19.9615 70.9867 18.6213 72.5893 17.529C73.8179 16.6932 79.9156 12.6006 82.0439 11.9817C83.6656 11.5103 85.2789 10.9919 86.9663 10.9493C88.3718 10.9126 89.9405 11.3572 91.0703 12.2289C91.6621 12.6867 91.8796 13.1222 91.8748 13.8838C91.8712 14.4876 91.6765 15.0562 91.1803 15.4263C90.4068 16.0037 89.6995 16.1951 88.735 15.9543C88.0671 15.7876 87.4335 15.4877 86.8341 15.1539C86.3056 14.8604 85.1053 14.3456 84.8635 13.7774C84.161 14.0358 85.1825 15.0949 85.4541 15.3721C86.1077 16.0392 86.8883 16.5704 87.7258 16.9771C88.4813 17.346 89.5402 17.8608 90.3933 17.8672C90.9517 17.8716 91.5108 17.7938 92.0612 17.7033C93.8832 17.4046 95.6766 16.9137 97.4512 16.4097C98.3759 16.1473 99.4321 15.9706 100.3 16.5628C100.848 16.9368 100.346 17.9406 100.193 18.4111C100.566 18.4765 100.996 18.2831 101.33 18.1427C102.099 17.8193 102.828 17.397 103.543 16.9688C104.021 16.682 104.373 16.4236 104.932 16.353C105.348 16.3008 105.768 16.2605 106.187 16.2534C106.357 16.2502 106.666 16.3215 106.6 16.0759C106.524 15.7936 106.473 15.5523 106.317 15.3039C105.979 14.7683 105.447 14.0146 104.73 14.0314C104.069 14.0481 103.653 14.685 102.935 14.6447C102.151 14.6004 101.464 14.0721 100.919 13.5525C100.464 13.1182 100.388 13.0951 99.7611 13.1262C98.9494 13.166 98.1398 13.2602 97.3325 13.3535C96.6356 13.4348 95.5786 12.8008 95.1636 12.2234C94.9366 11.9079 94.8171 11.4856 94.6626 11.1323C94.4794 10.7148 96.2094 10.9457 96.3584 10.9848C96.8012 11.1008 97.0187 11.3365 97.3126 10.9222C97.5547 10.5796 97.6344 10.33 98.0542 10.1996C98.8694 9.94636 99.7802 10.1725 100.559 10.444C100.882 10.5573 100.977 10.7467 101.189 10.4197C101.292 10.2606 101.394 10.0995 101.482 9.9316C101.614 9.68117 101.568 9.59703 101.847 9.45467C102.585 9.07783 103.466 9.23933 104.212 9.50093C104.523 9.61099 105.031 10.0305 105.287 9.78765C105.512 9.57311 105.737 9.35936 105.962 9.14562C106.391 8.73728 107.816 9.25967 108.262 9.3801C108.238 8.83737 107.937 8.45574 107.639 7.99995C107.129 7.22154 106.531 6.49378 105.82 5.89004C105.245 5.40154 104.595 4.99998 103.887 4.7316C103.687 4.65504 102.049 4.08041 102.03 4.54458C102.021 4.74716 102.613 5.01393 102.743 5.18142C102.875 5.3509 102.975 5.55348 103.083 5.73851C103.419 6.31593 103.169 6.48421 102.691 6.84071C102.241 7.17529 101.679 6.98228 101.186 6.82078C98.4213 5.91397 95.8347 4.21519 93.3607 2.72546C92.5323 2.22619 91.7426 1.70779 90.839 1.35368C90.0357 1.03892 89.2093 0.784228 88.3698 0.584841C86.6314 0.172271 84.8416 -0.000556934 83.0566 1.34793e-06C80.0351 0.00211484 77.0262 0.490214 74.1007 1.22555C72.6016 1.60251 71.1759 2.32086 69.829 3.07534C69.3941 3.31883 66.7704 4.64667 67.4183 5.25639C67.6923 4.66501 68.4207 4.43332 68.9954 4.16216C69.739 3.81012 70.506 3.5108 71.2866 3.25239C73.1265 2.64466 75.0378 2.26926 76.9589 2.03693C79.137 1.77267 81.3413 1.58285 83.5075 1.97417C85.1602 2.27245 86.9137 2.62552 88.4028 3.43954C88.0165 3.81331 86.9293 3.78037 86.4163 3.81387C85.5465 3.87129 84.6708 3.82822 83.8109 3.68411C83.8966 4.25347 84.2853 4.62952 84.6274 5.08372C83.9663 5.18939 83.3012 5.27752 82.6333 5.33016C82.2538 5.36047 81.2446 5.20734 80.9558 5.42348C80.4289 5.81746 81.2139 6.30077 81.4369 6.6828C80.6217 6.82875 79.7949 6.92645 78.9661 6.92645C78.7093 6.92645 77.5595 6.66286 77.4611 7.02535C77.3811 7.32363 78.3353 8.25197 78.4882 8.43541C76.6551 9.40841 71.5359 13.19 68.3021 16.1094C64.8313 19.2426 61.2856 22.2916 57.7531 25.3542C56.6188 19.2729 56.2253 11.7233 50.5566 7.93096C44.0391 3.57085 35.6873 6.21065 29.3638 9.5739C22.8842 13.0193 16.6683 17.6295 11.7947 23.137C9.14709 26.1286 6.88396 29.4631 4.90754 32.9312C2.82756 36.5836 1.09543 40.5131 0.373273 44.6759C-0.267122 48.3681 -0.222 52.6581 1.61953 56.025C3.02458 58.5947 5.50066 60.2595 8.3352 60.8649C15.8458 62.4695 22.7607 57.7816 28.6314 53.752C36.6124 48.2716 44.0901 42.1568 51.4005 35.8152C52.0922 39.7742 53.0078 43.8353 55.3209 47.1945C57.2815 50.0438 60.012 52.2825 62.9371 54.0818C68.9512 57.7792 76.115 60.3712 83.1674 60.9056C90.2929 61.4451 97.3974 59.6885 103.393 55.7797C106.578 53.7037 109.641 51.1197 111.738 47.9187C112.66 46.5107 113.486 45.028 114.266 43.5366C114.614 42.8703 115.233 41.961 115.25 41.1878C115.258 40.8002 114.642 41.4379 114.585 41.4953C116.225 39.8272 101.76 54.5403 114.585 41.4953Z" fill="white"/>
</svg>
